<svg width="179" height="71" viewBox="0 0 179 71" fill="none" xmlns="http://www.w3.org/2000/svg">
<path d="M29.6047 28.7712V18.8438C29.6047 18.3778 29.9824 18 30.4484 18H40.678C41.144 18 41.5217 18.3778 41.5217 18.8438V29.99C41.5217 30.456 41.8995 30.8338 42.3655 30.8338H53.2826C53.7486 30.8338 54.1263 31.2116 54.1263 31.6776V41.9071C54.1263 42.3731 53.7486 42.7509 53.2826 42.7509H35.9127C35.6889 42.7509 35.4743 42.662 35.3161 42.5037L30.3101 37.4978C30.1519 37.3396 29.9373 37.2507 29.7135 37.2507H24.792" stroke="#00A651" stroke-width="1.8334"/>
<path d="M41.5218 44.5843V54.5117C41.5218 54.9777 41.144 55.3555 40.678 55.3555H30.4485C29.9825 55.3555 29.6047 54.9777 29.6047 54.5117V43.3655C29.6047 42.8995 29.2269 42.5217 28.7609 42.5217H17.8439C17.3779 42.5217 17.0001 42.1439 17.0001 41.6779V31.4484C17.0001 30.9824 17.3779 30.6046 17.8439 30.6046H35.2138C35.4375 30.6046 35.6522 30.6935 35.8104 30.8517L40.8163 35.8577C40.9746 36.0159 41.1892 36.1048 41.413 36.1048H46.3345" stroke="#1B75BC" stroke-width="1.8334"/>
<circle cx="24.7917" cy="37.2505" r="2.29175" fill="white"/>
<path d="M27.0835 37.2505C27.0835 38.5162 26.0574 39.5422 24.7917 39.5422C23.526 39.5422 22.5 38.5162 22.5 37.2505C22.5 35.9848 23.526 34.9587 24.7917 34.9587C26.0574 34.9587 27.0835 35.9848 27.0835 37.2505ZM23.6465 37.2505C23.6465 37.883 24.1592 38.3958 24.7917 38.3958C25.4243 38.3958 25.937 37.883 25.937 37.2505C25.937 36.618 25.4243 36.1052 24.7917 36.1052C24.1592 36.1052 23.6465 36.618 23.6465 37.2505Z" fill="#00A651"/>
<circle cx="46.7927" cy="36.3337" r="2.29175" fill="white"/>
<path d="M49.0845 36.3337C49.0845 37.5994 48.0584 38.6255 46.7927 38.6255C45.527 38.6255 44.501 37.5994 44.501 36.3337C44.501 35.068 45.527 34.042 46.7927 34.042C48.0584 34.042 49.0845 35.068 49.0845 36.3337ZM45.6475 36.3337C45.6475 36.9663 46.1602 37.479 46.7927 37.479C47.4252 37.479 47.938 36.9663 47.938 36.3337C47.938 35.7012 47.4252 35.1885 46.7927 35.1885C46.1602 35.1885 45.6475 35.7012 45.6475 36.3337Z" fill="#1B75BC"/>
<circle cx="35.7927" cy="50.5427" r="2.29175" fill="white"/>
<path d="M38.0845 50.5427C38.0845 51.8084 37.0584 52.8345 35.7927 52.8345C34.527 52.8345 33.501 51.8084 33.501 50.5427C33.501 49.277 34.527 48.251 35.7927 48.251C37.0584 48.251 38.0845 49.277 38.0845 50.5427ZM34.6475 50.5427C34.6475 51.1752 35.1602 51.688 35.7927 51.688C36.4252 51.688 36.938 51.1752 36.938 50.5427C36.938 49.9102 36.4252 49.3975 35.7927 49.3975C35.1602 49.3975 34.6475 49.9102 34.6475 50.5427Z" fill="#00A651"/>
<circle cx="35.7927" cy="22.5835" r="2.29175" fill="white"/>
<path d="M38.0845 22.5835C38.0845 23.8492 37.0584 24.8752 35.7927 24.8752C34.527 24.8752 33.501 23.8492 33.501 22.5835C33.501 21.3178 34.527 20.2917 35.7927 20.2917C37.0584 20.2917 38.0845 21.3178 38.0845 22.5835ZM34.6475 22.5835C34.6475 23.216 35.1602 23.7288 35.7927 23.7288C36.4252 23.7288 36.938 23.216 36.938 22.5835C36.938 21.951 36.4252 21.4382 35.7927 21.4382C35.1602 21.4382 34.6475 21.951 34.6475 22.5835Z" fill="#1B75BC"/>
<path fill-rule="evenodd" clip-rule="evenodd" d="M15.5822 5.75977C3.40421 14.0821 -2.80696 29.4641 1.22521 44.5134C6.32991 63.5678 25.9206 74.8837 44.975 69.7722C60.547 65.5975 70.9465 51.7632 71.442 36.4423C69.2834 49.014 60.0583 59.814 46.93 63.3302C28.9413 68.1498 10.4571 57.4788 5.63752 39.4902C2.25701 26.8642 6.51319 13.9802 15.5822 5.75977Z" fill="#00A651"/>
<path fill-rule="evenodd" clip-rule="evenodd" d="M55.5101 55.0487C65.7873 48.0297 71.0278 35.0507 67.6201 22.3501C63.3097 6.26889 46.7805 -3.27527 30.6993 1.03521C17.5642 4.55149 8.78708 16.2339 8.36621 29.1586C10.1854 18.5487 17.9715 9.43897 29.0498 6.46575C44.2281 2.39964 59.8273 11.4075 63.8934 26.5791C66.7513 37.2433 63.1603 48.118 55.5101 55.0487Z" fill="#1B75BC"/>
<path d="M93.3325 29.5H89.7935V22.4336H82.1763V29.5H78.6372V12.5898H82.1763V19.4102H89.7935V12.5898H93.3325V29.5ZM102.684 18.9062C101.102 18.9062 99.9888 20.0078 99.8716 21.6836H105.379C105.309 19.9727 104.278 18.9062 102.684 18.9062ZM105.45 25.8203H108.625C108.11 28.2578 105.883 29.7812 102.719 29.7812C98.7817 29.7812 96.4614 27.2969 96.4614 23.1016C96.4614 18.8945 98.8286 16.293 102.672 16.293C106.481 16.293 108.731 18.7188 108.731 22.8203V23.8633H99.8599V24.0391C99.9067 25.9609 101.032 27.1562 102.813 27.1562C104.161 27.1562 105.086 26.6758 105.45 25.8203ZM116.196 27.1328C117.778 27.1328 118.973 26.125 118.973 24.8125V23.8633L116.36 24.0273C114.895 24.1328 114.18 24.6602 114.18 25.5859C114.18 26.5469 115.012 27.1328 116.196 27.1328ZM115.071 29.6992C112.586 29.6992 110.84 28.1758 110.84 25.8086C110.84 23.4648 112.633 22.1055 115.844 21.918L118.973 21.7305V20.6758C118.973 19.5977 118.2 18.9883 116.793 18.9883C115.563 18.9883 114.743 19.4102 114.461 20.1836H111.321C111.543 17.793 113.735 16.293 116.981 16.293C120.403 16.293 122.336 17.9102 122.336 20.6758V29.5H119.032V27.8125H118.821C118.153 28.9961 116.747 29.6992 115.071 29.6992ZM125.805 29.5V11.6406H129.215V29.5H125.805ZM133.739 13.5039H137.149V16.7031H139.833V19.3867H137.149V25.1992C137.149 26.3242 137.665 26.8398 138.825 26.8398C139.27 26.8398 139.504 26.8281 139.833 26.793V29.3945C139.411 29.4766 138.778 29.5469 138.122 29.5469C134.981 29.5469 133.739 28.5273 133.739 26.0078V19.3867H131.723V16.7031H133.739V13.5039ZM142.797 29.5V11.6406H146.149V18.6953H146.36C146.958 17.2188 148.364 16.3281 150.262 16.3281C153.04 16.3281 154.692 18.0742 154.692 21.1797V29.5H151.282V21.9883C151.282 20.1953 150.45 19.2695 148.903 19.2695C147.192 19.2695 146.208 20.4062 146.208 22.082V29.5H142.797Z" fill="#00A651"/>
<path d="M85.981 59.9336C81.0825 59.9336 78.0474 56.5469 78.0474 51.0391C78.0474 45.543 81.0708 42.1562 85.981 42.1562C89.9888 42.1562 93.0591 44.8164 93.3169 48.4961H89.8716C89.5317 46.5508 87.9966 45.2734 85.981 45.2734C83.3208 45.2734 81.6685 47.4766 81.6685 51.0391C81.6685 54.6016 83.3208 56.8164 85.9927 56.8164C88.02 56.8164 89.5435 55.6211 89.8833 53.7578H93.3286C93.0356 57.4141 90.0591 59.9336 85.981 59.9336ZM101.977 59.7812C98.0044 59.7812 95.6138 57.2617 95.6138 53.0312C95.6138 48.8477 98.0396 46.293 101.977 46.293C105.915 46.293 108.34 48.8359 108.34 53.0312C108.34 57.2617 105.95 59.7812 101.977 59.7812ZM101.977 56.9922C103.793 56.9922 104.836 55.5391 104.836 53.0312C104.836 50.5469 103.782 49.082 101.977 49.082C100.161 49.082 99.1177 50.5469 99.1177 53.0312C99.1177 55.5508 100.149 56.9922 101.977 56.9922ZM111.129 59.5V46.5742H114.434V48.6484H114.645C115.243 47.1953 116.555 46.293 118.465 46.293C121.336 46.293 122.883 48.0508 122.883 51.1445V59.5H119.473V51.9531C119.473 50.1719 118.711 49.2344 117.094 49.2344C115.512 49.2344 114.54 50.3477 114.54 52.0469V59.5H111.129ZM126.2 59.5V46.5742H129.504V48.6484H129.715C130.313 47.1953 131.625 46.293 133.536 46.293C136.407 46.293 137.954 48.0508 137.954 51.1445V59.5H134.543V51.9531C134.543 50.1719 133.782 49.2344 132.165 49.2344C130.583 49.2344 129.61 50.3477 129.61 52.0469V59.5H126.2ZM146.86 48.9062C145.278 48.9062 144.165 50.0078 144.047 51.6836H149.555C149.485 49.9727 148.454 48.9062 146.86 48.9062ZM149.625 55.8203H152.801C152.286 58.2578 150.059 59.7812 146.895 59.7812C142.958 59.7812 140.637 57.2969 140.637 53.1016C140.637 48.8945 143.004 46.293 146.848 46.293C150.657 46.293 152.907 48.7188 152.907 52.8203V53.8633H144.036V54.0391C144.083 55.9609 145.208 57.1562 146.989 57.1562C148.336 57.1562 149.262 56.6758 149.625 55.8203ZM167.145 51.1328H163.958C163.723 49.9023 162.844 49.0938 161.391 49.0938C159.551 49.0938 158.52 50.4648 158.52 53.0078C158.52 55.5859 159.563 56.9805 161.391 56.9805C162.786 56.9805 163.7 56.3008 163.958 55.0234H167.145C166.864 57.918 164.754 59.7812 161.391 59.7812C157.36 59.7812 155.075 57.3438 155.075 53.0078C155.075 48.7188 157.348 46.293 161.391 46.293C164.813 46.293 166.864 48.1914 167.145 51.1328ZM170.907 43.5039H174.317V46.7031H177V49.3867H174.317V55.1992C174.317 56.3242 174.833 56.8398 175.993 56.8398C176.438 56.8398 176.672 56.8281 177 56.793V59.3945C176.579 59.4766 175.946 59.5469 175.29 59.5469C172.149 59.5469 170.907 58.5273 170.907 56.0078V49.3867H168.891V46.7031H170.907V43.5039Z" fill="#1B75BC"/>
</svg>
